<svg width="39" height="39" viewBox="0 0 39 39" fill="none" xmlns="http://www.w3.org/2000/svg">
<g clip-path="url(#clip0_25_44)">
<path d="M13.4452 1.26946C9.58889 2.60726 6.26319 5.14645 3.95662 8.51406C1.65004 11.8817 0.484178 15.9002 0.630273 19.9794C0.776368 24.0586 2.22672 27.9834 4.7683 31.1774C7.30987 34.3714 10.8087 36.6661 14.7509 37.7246C17.9469 38.5493 21.2953 38.5855 24.5084 37.8302C27.4192 37.1764 30.1102 35.7778 32.3181 33.7716C34.616 31.6197 36.284 28.8822 37.1426 25.8533C38.0759 22.5596 38.242 19.0958 37.6281 15.7279H19.6809V23.1727H30.0747C29.867 24.3601 29.4218 25.4934 28.7659 26.5047C28.11 27.5161 27.2568 28.3847 26.2573 29.0586C24.9881 29.8982 23.5574 30.4631 22.057 30.717C20.5522 30.9968 19.0087 30.9968 17.5039 30.717C15.9787 30.4017 14.5359 29.7722 13.2673 28.8686C11.2294 27.4261 9.69924 25.3767 8.89513 23.0129C8.07742 20.6049 8.07742 17.9942 8.89513 15.5862C9.46751 13.8983 10.4137 12.3614 11.6632 11.0903C13.093 9.60906 14.9032 8.55023 16.8952 8.03003C18.8872 7.50982 20.984 7.54834 22.9555 8.14136C24.4957 8.61414 25.9041 9.44017 27.0684 10.5536C28.2404 9.38769 29.4103 8.21876 30.5783 7.0468C31.1813 6.4166 31.8387 5.81655 32.4327 5.17128C30.6553 3.5173 28.5691 2.23031 26.2935 1.38404C22.1496 -0.120634 17.6154 -0.16107 13.4452 1.26946Z" fill="white"/>
<path d="M13.4452 1.26946C17.615 -0.162042 22.1492 -0.12267 26.2935 1.38102C28.5695 2.23304 30.6548 3.52624 32.4297 5.18635C31.8266 5.83163 31.1904 6.43469 30.5752 7.06188C29.4053 8.22981 28.2364 9.39372 27.0684 10.5536C25.9041 9.44017 24.4957 8.61414 22.9555 8.14136C20.9847 7.54626 18.8879 7.50552 16.8954 8.02359C14.9029 8.54167 13.0916 9.59855 11.6602 11.0783C10.4107 12.3493 9.46449 13.8862 8.89211 15.5741L2.64136 10.7345C4.87875 6.29768 8.75265 2.90383 13.4452 1.26946Z" fill="#E33629"/>
<path d="M0.983021 15.5289C1.31899 13.8638 1.87677 12.2513 2.64145 10.7345L8.8922 15.5862C8.07449 17.9942 8.07449 20.6048 8.8922 23.0129C6.80962 24.6211 4.72603 26.2373 2.64145 27.8615C0.727174 24.0511 0.143354 19.7096 0.983021 15.5289Z" fill="#F8BD00"/>
<path d="M19.6809 15.7249H37.6281C38.242 19.0928 38.0759 22.5566 37.1426 25.8503C36.2839 28.8791 34.616 31.6166 32.3181 33.7685C30.3008 32.1945 28.2746 30.6326 26.2573 29.0586C27.2574 28.384 28.111 27.5145 28.767 26.502C29.4229 25.4896 29.8677 24.3552 30.0747 23.1667H19.6809C19.6779 20.6881 19.6809 18.2065 19.6809 15.7249Z" fill="#587DBD"/>
<path d="M2.63843 27.8615C4.72302 26.2533 6.8066 24.6371 8.88918 23.0129C9.69489 25.3775 11.2273 27.427 13.2674 28.8686C14.5399 29.768 15.9858 30.3924 17.513 30.7019C19.0178 30.9817 20.5613 30.9817 22.0661 30.7019C23.5665 30.448 24.9972 29.8831 26.2664 29.0435C28.2837 30.6175 30.31 32.1794 32.3272 33.7534C30.1197 35.7608 27.4286 37.1604 24.5176 37.8151C21.3045 38.5704 17.956 38.5342 14.76 37.7095C12.2323 37.0346 9.87119 35.8448 7.82477 34.2148C5.65875 32.4951 3.88965 30.328 2.63843 27.8615Z" fill="#319F43"/>
</g>
<defs>
<clipPath id="clip0_25_44">
<rect width="38.596" height="38.596" fill="white"/>
</clipPath>
</defs>
</svg>
